<svg xmlns="http://www.w3.org/2000/svg" version="1.1" xmlns:xlink="http://www.w3.org/1999/xlink" xmlns:svgjs="http://svgjs.dev/svgjs" width="100" height="62" viewBox="0 0 1000 623"><g transform="matrix(1,0,0,1,-0.6060606060606233,0.2522267206477409)"><svg viewBox="0 0 396 247" data-background-color="#ffffff" preserveAspectRatio="xMidYMid meet" height="623" width="1000" xmlns="http://www.w3.org/2000/svg" xmlns:xlink="http://www.w3.org/1999/xlink"><g id="tight-bounds" transform="matrix(1,0,0,1,0.2400000000000091,-0.09999999999999432)"><svg viewBox="0 0 395.52 247.2" height="247.2" width="395.52"><g><svg viewBox="0 0 395.52 247.2" height="247.2" width="395.52"><g transform="matrix(1,0,0,1,0,106.0415248975537)"><svg viewBox="0 0 395.52 35.116950204892575" height="35.116950204892575" width="395.52"><g><svg viewBox="0 0 395.52 35.116950204892575" height="35.116950204892575" width="395.52"><g><svg viewBox="0 0 395.52 35.116950204892575" height="35.116950204892575" width="395.52"><g><svg viewBox="0 0 395.52 35.116950204892575" height="35.116950204892575" width="395.52"><g id="textblocktransform"><svg viewBox="0 0 395.52 35.116950204892575" height="35.116950204892575" width="395.52" id="textblock"><g><svg viewBox="0 0 395.52 35.116950204892575" height="35.116950204892575" width="395.52"><g transform="matrix(1,0,0,1,0,0)"><svg width="395.52" viewBox="1 -32.75 403.6300048828125 36.75" height="35.116950204892575" data-palette-color="url(#63649fd9-0cc3-4a01-92ac-9bbf2c7593de)"></svg></g></svg></g></svg></g></svg></g><g></g></svg></g></svg></g></svg></g></svg></g><defs></defs><mask id="231bbf47-5628-4b94-9bca-affe457a34c8"><g id="SvgjsG3005"><svg viewBox="0 0 395.52 247.2" height="247.2" width="395.52"><g><svg viewBox="0 0 395.52 247.2" height="247.2" width="395.52"><g transform="matrix(1,0,0,1,0,106.0415248975537)"><svg viewBox="0 0 395.52 35.116950204892575" height="35.116950204892575" width="395.52"><g><svg viewBox="0 0 395.52 35.116950204892575" height="35.116950204892575" width="395.52"><g><svg viewBox="0 0 395.52 35.116950204892575" height="35.116950204892575" width="395.52"><g><svg viewBox="0 0 395.52 35.116950204892575" height="35.116950204892575" width="395.52"><g id="SvgjsG3004"><svg viewBox="0 0 395.52 35.116950204892575" height="35.116950204892575" width="395.52" id="SvgjsSvg3003"><g><svg viewBox="0 0 395.52 35.116950204892575" height="35.116950204892575" width="395.52"><g transform="matrix(1,0,0,1,0,0)"><svg width="395.52" viewBox="1 -32.75 403.6300048828125 36.75" height="35.116950204892575" data-palette-color="url(#63649fd9-0cc3-4a01-92ac-9bbf2c7593de)"><path d="M5-28.75L5-28.75 21-28.75 21-22.85 11.3-22.85 11.3-17.2 21-17.2 21-11.35 11.3-11.35 11.3 0 5 0 5-28.75ZM39.45-22.85L39.45-22.85 39.45-28.75 23.45-28.75 23.45-22.85 39.45-22.85ZM31.55-11.35L31.55-11.35 31.55-17.2 23.45-17.2 23.45-11.35 31.55-11.35ZM43.95-28.75L43.95-28.75 50.25-28.75 50.25-5.85 59.95-5.85 59.95 0 49.65 0 43.95-3.4 43.95-28.75ZM78.4-28.75L78.4-28.75 72.1-28.75 72.1-5.85 62.4-5.85 62.4 0 72.75 0 78.4-3.4 78.4-28.75ZM85.9-14.75L85.9-25.3 91.6-28.75 101.9-28.75 101.9-22.85 92-22.85 92-17.2 101.9-17.2 101.9-11.35 91.6-11.35 85.9-14.75ZM120.35-3.4L120.35-13.75 114.45-17.2 104.15-17.2 104.15-11.35 114.05-11.35 114.05-5.65 104.35-5.65 104.35 0 114.45 0 120.35-3.4ZM85.9-9.1L92.2-9.1 92.2-5.65 101.9-5.65 101.9 0 91.75 0 85.9-3.4 85.9-9.1ZM114.05-19.45L120.35-19.45 120.35-25.3 114.45-28.75 104.15-28.75 104.15-22.85 114.05-22.85 114.05-19.45ZM127.84-28.75L127.84-28.75 134.14-28.75 134.14 0 127.84 0 127.84-28.75ZM142.14-25.3L142.14-25.3 147.99-28.75 158.34-28.75 158.34-23.1 148.44-23.1 148.44-5.85 158.14-5.85 158.14 0 147.99 0 142.14-3.4 142.14-25.3ZM176.59-25.3L176.59-25.3 170.94-28.75 160.59-28.75 160.59-23.1 170.29-23.1 170.29-5.85 160.59-5.85 160.59 0 170.94 0 176.59-3.4 176.59-25.3ZM185.59 0L185.59-28.75 191.29-28.75 201.59-19.05 201.59-11.5 191.89-20.85 191.89 0 185.59 0ZM203.84-17.2L213.74-8.1 213.74-28.75 220.04-28.75 220.04 0 214.14 0 203.84-9.9 203.84-17.2ZM243.53-14.75L243.53-25.3 249.23-28.75 259.53-28.75 259.53-22.85 249.63-22.85 249.63-17.2 259.53-17.2 259.53-11.35 249.23-11.35 243.53-14.75ZM277.98-3.4L277.98-13.75 272.08-17.2 261.78-17.2 261.78-11.35 271.68-11.35 271.68-5.65 261.98-5.65 261.98 0 272.08 0 277.98-3.4ZM243.53-9.1L249.83-9.1 249.83-5.65 259.53-5.65 259.53 0 249.38 0 243.53-3.4 243.53-9.1ZM271.68-19.45L277.98-19.45 277.98-25.3 272.08-28.75 261.78-28.75 261.78-22.85 271.68-22.85 271.68-19.45ZM316.03-26.9L301.63-13.15 301.63 0 295.98 0 295.98-13.15 281.58-26.9 287.28-28.75 298.78-17.8 298.78-17.8 310.38-28.75 316.03-26.9ZM322.53 0L322.53-28.75 328.23-28.75 338.53-19.05 338.53-11.5 328.83-20.85 328.83 0 322.53 0ZM340.78-17.2L350.68-8.1 350.68-28.75 356.98-28.75 356.98 0 351.08 0 340.78-9.9 340.78-17.2ZM365.98-3.4L365.98-25.3 371.83-28.75 382.18-28.75 382.18-23.1 372.48-23.1 372.48-5.85 381.98-5.85 381.98 0 371.83 0 365.98-3.4ZM400.63-9.3L394.13-9.3 394.13-5.85 384.63-5.85 384.63 0 394.78 0 400.63-3.4 400.63-9.3ZM394.13-19.6L400.63-19.6 400.63-25.3 394.78-28.75 384.43-28.75 384.43-23.1 394.13-23.1 394.13-19.6Z" opacity="1" transform="matrix(1,0,0,1,0,0)" fill="white" class="wordmark-text-0" id="SvgjsPath3002"></path></svg></g></svg></g></svg></g></svg></g><g></g></svg></g></svg></g></svg></g></svg></g><defs><mask></mask></defs></svg></g></mask><linearGradient x1="0" x2="1" y1="0.548" y2="0.55" id="63649fd9-0cc3-4a01-92ac-9bbf2c7593de"><stop stop-color="#ff6cab" offset="0"></stop><stop stop-color="#7366ff" offset="1"></stop></linearGradient><rect width="395.5199890136719" height="247.1999969482422" fill="url(#63649fd9-0cc3-4a01-92ac-9bbf2c7593de)" mask="url(#231bbf47-5628-4b94-9bca-affe457a34c8)" data-fill-palette-color="primary"></rect></svg><rect width="395.52" height="247.2" fill="none" stroke="none" visibility="hidden"></rect></g></svg></g></svg>