<svg xmlns="http://www.w3.org/2000/svg" xmlns:xlink="http://www.w3.org/1999/xlink" width="350" zoomAndPan="magnify" viewBox="0 0 262.5 60" height="80" preserveAspectRatio="xMidYMid meet" version="1.0"><defs><g/><clipPath id="1b5dc16115"><path d="M 241 18 L 262 18 L 262 45 L 241 45 Z M 241 18 " clip-rule="nonzero"/></clipPath><clipPath id="05cd98231b"><path d="M 0 10 L 262 10 L 262 51 L 0 51 Z M 0 10 " clip-rule="nonzero"/></clipPath></defs><g fill="#ff3131" fill-opacity="1"><g transform="translate(0.125537, 44.442505)"><g><path d="M 2.421875 0 L 2.421875 -25.5 L 21.59375 -25.5 L 21.59375 -20.234375 L 8.890625 -20.234375 L 8.890625 -14.84375 L 20 -14.84375 L 20 -9.96875 L 8.890625 -9.96875 L 8.890625 0 Z M 2.421875 0 "/></g></g></g><g fill="#ff3131" fill-opacity="1"><g transform="translate(23.721896, 44.442505)"><g><path d="M 6.015625 0 L 2.25 -3.84375 L 2.25 -25.5 L 8.71875 -25.5 L 8.71875 -6.125 L 9.921875 -4.90625 L 16.953125 -4.90625 L 18.15625 -6.125 L 18.15625 -25.5 L 24.625 -25.5 L 24.625 -3.84375 L 20.796875 0 Z M 6.015625 0 "/></g></g></g><g fill="#ff3131" fill-opacity="1"><g transform="translate(52.092876, 44.442505)"><g><path d="M 2.5625 0 L 2.5625 -5.1875 L 15.84375 -5.1875 L 17.0625 -6.40625 L 17.0625 -9.234375 L 15.84375 -10.453125 L 5.390625 -10.453125 L 1.5625 -14.328125 L 1.5625 -21.65625 L 5.390625 -25.5 L 22.078125 -25.5 L 22.078125 -20.3125 L 9.125 -20.3125 L 7.921875 -19.09375 L 7.921875 -16.84375 L 9.125 -15.640625 L 19.578125 -15.640625 L 23.421875 -11.796875 L 23.421875 -3.84375 L 19.578125 0 Z M 2.5625 0 "/></g></g></g><g fill="#ff3131" fill-opacity="1"><g transform="translate(78.560928, 44.442505)"><g><path d="M 1.390625 0 L 1.390625 -4.875 L 4.21875 -4.875 L 4.15625 -20.625 L 1.390625 -20.625 L 1.390625 -25.5 L 13.140625 -25.5 L 13.140625 -20.625 L 10.34375 -20.625 L 10.28125 -4.875 L 13.140625 -4.875 L 13.140625 0 Z M 1.390625 0 "/></g></g></g><g fill="#ff3131" fill-opacity="1"><g transform="translate(94.580167, 44.442505)"><g><path d="M 5.5625 0 L 1.734375 -3.84375 L 1.734375 -21.65625 L 5.5625 -25.5 L 20.515625 -25.5 L 24.359375 -21.65625 L 24.359375 -3.84375 L 20.515625 0 Z M 9.4375 -4.90625 L 16.703125 -4.90625 L 17.921875 -6.125 L 17.921875 -19.375 L 16.640625 -20.578125 L 9.4375 -20.578125 L 8.203125 -19.375 L 8.203125 -6.125 Z M 9.4375 -4.90625 "/></g></g></g><g fill="#ff3131" fill-opacity="1"><g transform="translate(122.155372, 44.442505)"><g><path d="M 2.421875 0 L 2.421875 -25.5 L 9.484375 -25.5 L 18.0625 -10.203125 L 18.0625 -25.5 L 24.078125 -25.5 L 24.078125 0 L 18.0625 0 L 9.6875 -14.9375 L 8.4375 -14.9375 L 8.4375 0 Z M 2.421875 0 "/></g></g></g><g fill="#ff3131" fill-opacity="1"><g transform="translate(150.145766, 44.442505)"><g/></g></g><g fill="#ff3131" fill-opacity="1"><g transform="translate(160.144823, 44.442505)"><g><path d="M 2.5625 0 L 2.5625 -5.1875 L 15.84375 -5.1875 L 17.0625 -6.40625 L 17.0625 -9.234375 L 15.84375 -10.453125 L 5.390625 -10.453125 L 1.5625 -14.328125 L 1.5625 -21.65625 L 5.390625 -25.5 L 22.078125 -25.5 L 22.078125 -20.3125 L 9.125 -20.3125 L 7.921875 -19.09375 L 7.921875 -16.84375 L 9.125 -15.640625 L 19.578125 -15.640625 L 23.421875 -11.796875 L 23.421875 -3.84375 L 19.578125 0 Z M 2.5625 0 "/></g></g></g><g fill="#ff3131" fill-opacity="1"><g transform="translate(186.61288, 44.442505)"><g><path d="M 8.515625 0 L 8.515625 -8.921875 L 5.953125 -11.140625 L 0 -25.5 L 7.4375 -25.5 L 11.109375 -13.765625 L 12.34375 -13.765625 L 16.015625 -25.5 L 23.453125 -25.5 L 17.5 -11.140625 L 14.9375 -8.921875 L 14.9375 0 Z M 8.515625 0 "/></g></g></g><g fill="#ff3131" fill-opacity="1"><g transform="translate(211.558591, 44.442505)"><g><path d="M 2.421875 0 L 2.421875 -25.5 L 9.484375 -25.5 L 18.0625 -10.203125 L 18.0625 -25.5 L 24.078125 -25.5 L 24.078125 0 L 18.0625 0 L 9.6875 -14.9375 L 8.4375 -14.9375 L 8.4375 0 Z M 2.421875 0 "/></g></g></g><g clip-path="url(#1b5dc16115)"><g fill="#ff3131" fill-opacity="1"><g transform="translate(239.548972, 44.442505)"><g><path d="M 5.5625 0 L 1.734375 -3.84375 L 1.734375 -21.65625 L 5.5625 -25.5 L 18.6875 -25.5 L 22.5625 -21.65625 L 22.5625 -16.5 L 16.265625 -16.5 L 16.265625 -19.375 L 15.015625 -20.578125 L 9.4375 -20.578125 L 8.203125 -19.375 L 8.203125 -6.125 L 9.4375 -4.90625 L 15.21875 -4.90625 L 16.5 -6.125 L 16.5 -9.03125 L 22.765625 -9.03125 L 22.765625 -3.84375 L 18.921875 0 Z M 5.5625 0 "/></g></g></g></g><g clip-path="url(#05cd98231b)"><path stroke-linecap="butt" transform="matrix(0.756258, 0, 0, 0.756258, -1.935296, 14.175615)" fill="none" stroke-linejoin="miter" d="M 3.907169 38.000856 L 3.907169 4.277035 L 29.252978 4.277035 L 29.252978 11.239772 L 12.465964 11.239772 L 12.465964 18.372962 L 27.140397 18.372962 L 27.140397 24.819176 L 12.465964 24.819176 L 12.465964 38.000856 Z M 39.867537 38.000856 L 34.877919 32.918264 L 34.877919 4.277035 L 43.431549 4.277035 L 43.431549 29.901767 L 45.037937 31.497825 L 54.319865 31.497825 L 55.921088 29.901767 L 55.921088 4.277035 L 64.474717 4.277035 L 64.474717 32.918264 L 59.402456 38.000856 Z M 72.806242 38.000856 L 72.806242 31.141423 L 90.373207 31.141423 L 91.969264 29.535035 L 91.969264 25.779909 L 90.373207 24.183852 L 76.556203 24.183852 L 71.473611 19.054773 L 71.473611 9.359626 L 76.556203 4.277035 L 98.606592 4.277035 L 98.606592 11.146798 L 81.494167 11.146798 L 79.89811 12.748021 L 79.89811 15.718031 L 81.494167 17.324419 L 95.311172 17.324419 L 100.393763 22.39668 L 100.393763 32.918264 L 95.311172 38.000856 Z M 106.25114 38.000856 L 106.25114 31.544312 L 110.001101 31.544312 L 109.913292 10.733579 L 106.25114 10.733579 L 106.25114 4.277035 L 121.798498 4.277035 L 121.798498 10.733579 L 118.10019 10.733579 L 118.012381 31.544312 L 121.798498 31.544312 L 121.798498 38.000856 Z M 132.960571 38.000856 L 127.88831 32.918264 L 127.88831 9.359626 L 132.960571 4.277035 L 152.733092 4.277035 L 157.815683 9.359626 L 157.815683 32.918264 L 152.733092 38.000856 Z M 138.08965 31.497825 L 147.691822 31.497825 L 149.303376 29.901767 L 149.303376 12.376124 L 147.604013 10.780066 L 138.08965 10.780066 L 136.447105 12.376124 L 136.447105 29.901767 Z M 165.269118 38.000856 L 165.269118 4.277035 L 174.597533 4.277035 L 185.945554 24.509261 L 185.945554 4.277035 L 193.905182 4.277035 L 193.905182 38.000856 L 185.945554 38.000856 L 174.876455 18.243831 L 173.22358 18.243831 L 173.22358 38.000856 Z M 215.681814 38.000856 L 215.681814 31.141423 L 233.248779 31.141423 L 234.850002 29.535035 L 234.850002 25.779909 L 233.248779 24.183852 L 219.431774 24.183852 L 214.354348 19.054773 L 214.354348 9.359626 L 219.431774 4.277035 L 241.482164 4.277035 L 241.482164 11.146798 L 224.369739 11.146798 L 222.773682 12.748021 L 222.773682 15.718031 L 224.369739 17.324419 L 238.186744 17.324419 L 243.269335 22.39668 L 243.269335 32.918264 L 238.186744 38.000856 Z M 258.553266 38.000856 L 258.553266 26.193128 L 255.170037 23.269605 L 247.293053 4.277035 L 257.137992 4.277035 L 261.982982 19.793402 L 263.625527 19.793402 L 268.470518 4.277035 L 278.315456 4.277035 L 270.448803 23.269605 L 267.055243 26.193128 L 267.055243 38.000856 Z M 283.485857 38.000856 L 283.485857 4.277035 L 292.814271 4.277035 L 304.162293 24.509261 L 304.162293 4.277035 L 312.127086 4.277035 L 312.127086 38.000856 L 304.162293 38.000856 L 293.093194 18.243831 L 291.440319 18.243831 L 291.440319 38.000856 Z M 324.652781 38.000856 L 319.58052 32.918264 L 319.58052 9.359626 L 324.652781 4.277035 L 341.997641 4.277035 L 347.12672 9.359626 L 347.12672 16.172572 L 338.795195 16.172572 L 338.795195 12.376124 L 337.152651 10.780066 L 329.78186 10.780066 L 328.139315 12.376124 L 328.139315 29.901767 L 329.78186 31.497825 L 337.421243 31.497825 L 339.11544 29.901767 L 339.11544 26.058832 L 347.395312 26.058832 L 347.395312 32.918264 L 342.323051 38.000856 Z M 324.652781 38.000856 " stroke="#ff3131" stroke-width="1.715651" stroke-opacity="1" stroke-miterlimit="4"/></g></svg>