<svg xmlns="http://www.w3.org/2000/svg" xmlns:xlink="http://www.w3.org/1999/xlink" width="350" zoomAndPan="magnify" viewBox="0 0 262.5 66" height="88" preserveAspectRatio="xMidYMid meet" version="1.0"><defs><g/></defs><g fill="#ffffff" fill-opacity="1"><g transform="translate(2.158524, 45.701551)"><g><path d="M 2.375 0 L 2.375 -25.0625 L 21.21875 -25.0625 L 21.21875 -19.90625 L 8.734375 -19.90625 L 8.734375 -14.59375 L 19.65625 -14.59375 L 19.65625 -9.796875 L 8.734375 -9.796875 L 8.734375 0 Z M 2.375 0 "/></g></g></g><g fill="#ffffff" fill-opacity="1"><g transform="translate(25.355562, 45.701551)"><g><path d="M 5.921875 0 L 2.21875 -3.78125 L 2.21875 -25.0625 L 8.578125 -25.0625 L 8.578125 -6.015625 L 9.765625 -4.828125 L 16.671875 -4.828125 L 17.859375 -6.015625 L 17.859375 -25.0625 L 24.21875 -25.0625 L 24.21875 -3.78125 L 20.4375 0 Z M 5.921875 0 "/></g></g></g><g fill="#ffffff" fill-opacity="1"><g transform="translate(53.24642, 45.701551)"><g><path d="M 2.515625 0 L 2.515625 -5.109375 L 15.578125 -5.109375 L 16.765625 -6.296875 L 16.765625 -9.078125 L 15.578125 -10.265625 L 5.3125 -10.265625 L 1.53125 -14.078125 L 1.53125 -21.296875 L 5.3125 -25.0625 L 21.703125 -25.0625 L 21.703125 -19.96875 L 8.984375 -19.96875 L 7.796875 -18.78125 L 7.796875 -16.5625 L 8.984375 -15.375 L 19.25 -15.375 L 23.03125 -11.59375 L 23.03125 -3.78125 L 19.25 0 Z M 2.515625 0 "/></g></g></g><g fill="#ffffff" fill-opacity="1"><g transform="translate(79.266554, 45.701551)"><g><path d="M 1.359375 0 L 1.359375 -4.796875 L 4.15625 -4.796875 L 4.078125 -20.265625 L 1.359375 -20.265625 L 1.359375 -25.0625 L 12.921875 -25.0625 L 12.921875 -20.265625 L 10.171875 -20.265625 L 10.109375 -4.796875 L 12.921875 -4.796875 L 12.921875 0 Z M 1.359375 0 "/></g></g></g><g fill="#ffffff" fill-opacity="1"><g transform="translate(95.014699, 45.701551)"><g><path d="M 5.46875 0 L 1.703125 -3.78125 L 1.703125 -21.296875 L 5.46875 -25.0625 L 20.171875 -25.0625 L 23.953125 -21.296875 L 23.953125 -3.78125 L 20.171875 0 Z M 9.28125 -4.828125 L 16.421875 -4.828125 L 17.625 -6.015625 L 17.625 -19.046875 L 16.359375 -20.234375 L 9.28125 -20.234375 L 8.0625 -19.046875 L 8.0625 -6.015625 Z M 9.28125 -4.828125 "/></g></g></g><g fill="#ffffff" fill-opacity="1"><g transform="translate(122.123249, 45.701551)"><g><path d="M 2.375 0 L 2.375 -25.0625 L 9.3125 -25.0625 L 17.75 -10.03125 L 17.75 -25.0625 L 23.671875 -25.0625 L 23.671875 0 L 17.75 0 L 9.53125 -14.6875 L 8.296875 -14.6875 L 8.296875 0 Z M 2.375 0 "/></g></g></g><g fill="#ffffff" fill-opacity="1"><g transform="translate(149.639961, 45.701551)"><g/></g></g><g fill="#ffffff" fill-opacity="1"><g transform="translate(159.469804, 45.701551)"><g><path d="M 2.515625 0 L 2.515625 -5.109375 L 15.578125 -5.109375 L 16.765625 -6.296875 L 16.765625 -9.078125 L 15.578125 -10.265625 L 5.3125 -10.265625 L 1.53125 -14.078125 L 1.53125 -21.296875 L 5.3125 -25.0625 L 21.703125 -25.0625 L 21.703125 -19.96875 L 8.984375 -19.96875 L 7.796875 -18.78125 L 7.796875 -16.5625 L 8.984375 -15.375 L 19.25 -15.375 L 23.03125 -11.59375 L 23.03125 -3.78125 L 19.25 0 Z M 2.515625 0 "/></g></g></g><g fill="#ffffff" fill-opacity="1"><g transform="translate(185.489943, 45.701551)"><g><path d="M 8.375 0 L 8.375 -8.78125 L 5.84375 -10.953125 L 0 -25.0625 L 7.3125 -25.0625 L 10.921875 -13.53125 L 12.140625 -13.53125 L 15.75 -25.0625 L 23.0625 -25.0625 L 17.21875 -10.953125 L 14.6875 -8.78125 L 14.6875 0 Z M 8.375 0 "/></g></g></g><g fill="#ffffff" fill-opacity="1"><g transform="translate(210.013497, 45.701551)"><g><path d="M 2.375 0 L 2.375 -25.0625 L 9.3125 -25.0625 L 17.75 -10.03125 L 17.75 -25.0625 L 23.671875 -25.0625 L 23.671875 0 L 17.75 0 L 9.53125 -14.6875 L 8.296875 -14.6875 L 8.296875 0 Z M 2.375 0 "/></g></g></g><g fill="#ffffff" fill-opacity="1"><g transform="translate(237.530197, 45.701551)"><g><path d="M 5.46875 0 L 1.703125 -3.78125 L 1.703125 -21.296875 L 5.46875 -25.0625 L 18.375 -25.0625 L 22.171875 -21.296875 L 22.171875 -16.21875 L 15.984375 -16.21875 L 15.984375 -19.046875 L 14.765625 -20.234375 L 9.28125 -20.234375 L 8.0625 -19.046875 L 8.0625 -6.015625 L 9.28125 -4.828125 L 14.96875 -4.828125 L 16.21875 -6.015625 L 16.21875 -8.875 L 22.375 -8.875 L 22.375 -3.78125 L 18.609375 0 Z M 5.46875 0 "/></g></g></g></svg>