<svg xmlns="http://www.w3.org/2000/svg" xmlns:xlink="http://www.w3.org/1999/xlink" width="350" zoomAndPan="magnify" viewBox="0 0 262.5 66" height="88" preserveAspectRatio="xMidYMid meet" version="1.0"><defs><g/></defs><g fill="#ffffff" fill-opacity="1"><g transform="translate(2.158524, 32.906074)"><g><path d="M 2.375 0 L 2.375 -25.0625 L 21.21875 -25.0625 L 21.21875 -19.90625 L 8.734375 -19.90625 L 8.734375 -14.59375 L 19.65625 -14.59375 L 19.65625 -9.796875 L 8.734375 -9.796875 L 8.734375 0 Z M 2.375 0 "/></g></g></g><g fill="#ffffff" fill-opacity="1"><g transform="translate(25.355562, 32.906074)"><g><path d="M 5.921875 0 L 2.21875 -3.78125 L 2.21875 -25.0625 L 8.578125 -25.0625 L 8.578125 -6.015625 L 9.765625 -4.828125 L 16.671875 -4.828125 L 17.859375 -6.015625 L 17.859375 -25.0625 L 24.21875 -25.0625 L 24.21875 -3.78125 L 20.4375 0 Z M 5.921875 0 "/></g></g></g><g fill="#ffffff" fill-opacity="1"><g transform="translate(53.24642, 32.906074)"><g><path d="M 2.515625 0 L 2.515625 -5.109375 L 15.578125 -5.109375 L 16.765625 -6.296875 L 16.765625 -9.078125 L 15.578125 -10.265625 L 5.3125 -10.265625 L 1.53125 -14.078125 L 1.53125 -21.296875 L 5.3125 -25.0625 L 21.703125 -25.0625 L 21.703125 -19.96875 L 8.984375 -19.96875 L 7.796875 -18.78125 L 7.796875 -16.5625 L 8.984375 -15.375 L 19.25 -15.375 L 23.03125 -11.59375 L 23.03125 -3.78125 L 19.25 0 Z M 2.515625 0 "/></g></g></g><g fill="#ffffff" fill-opacity="1"><g transform="translate(79.266554, 32.906074)"><g><path d="M 1.359375 0 L 1.359375 -4.796875 L 4.15625 -4.796875 L 4.078125 -20.265625 L 1.359375 -20.265625 L 1.359375 -25.0625 L 12.921875 -25.0625 L 12.921875 -20.265625 L 10.171875 -20.265625 L 10.109375 -4.796875 L 12.921875 -4.796875 L 12.921875 0 Z M 1.359375 0 "/></g></g></g><g fill="#ffffff" fill-opacity="1"><g transform="translate(95.014699, 32.906074)"><g><path d="M 5.46875 0 L 1.703125 -3.78125 L 1.703125 -21.296875 L 5.46875 -25.0625 L 20.171875 -25.0625 L 23.953125 -21.296875 L 23.953125 -3.78125 L 20.171875 0 Z M 9.28125 -4.828125 L 16.421875 -4.828125 L 17.625 -6.015625 L 17.625 -19.046875 L 16.359375 -20.234375 L 9.28125 -20.234375 L 8.0625 -19.046875 L 8.0625 -6.015625 Z M 9.28125 -4.828125 "/></g></g></g><g fill="#ffffff" fill-opacity="1"><g transform="translate(122.123249, 32.906074)"><g><path d="M 2.375 0 L 2.375 -25.0625 L 9.3125 -25.0625 L 17.75 -10.03125 L 17.75 -25.0625 L 23.671875 -25.0625 L 23.671875 0 L 17.75 0 L 9.53125 -14.6875 L 8.296875 -14.6875 L 8.296875 0 Z M 2.375 0 "/></g></g></g><g fill="#ffffff" fill-opacity="1"><g transform="translate(149.639961, 32.906074)"><g/></g></g><g fill="#ffffff" fill-opacity="1"><g transform="translate(159.469804, 32.906074)"><g><path d="M 2.515625 0 L 2.515625 -5.109375 L 15.578125 -5.109375 L 16.765625 -6.296875 L 16.765625 -9.078125 L 15.578125 -10.265625 L 5.3125 -10.265625 L 1.53125 -14.078125 L 1.53125 -21.296875 L 5.3125 -25.0625 L 21.703125 -25.0625 L 21.703125 -19.96875 L 8.984375 -19.96875 L 7.796875 -18.78125 L 7.796875 -16.5625 L 8.984375 -15.375 L 19.25 -15.375 L 23.03125 -11.59375 L 23.03125 -3.78125 L 19.25 0 Z M 2.515625 0 "/></g></g></g><g fill="#ffffff" fill-opacity="1"><g transform="translate(185.489943, 32.906074)"><g><path d="M 8.375 0 L 8.375 -8.78125 L 5.84375 -10.953125 L 0 -25.0625 L 7.3125 -25.0625 L 10.921875 -13.53125 L 12.140625 -13.53125 L 15.75 -25.0625 L 23.0625 -25.0625 L 17.21875 -10.953125 L 14.6875 -8.78125 L 14.6875 0 Z M 8.375 0 "/></g></g></g><g fill="#ffffff" fill-opacity="1"><g transform="translate(210.013497, 32.906074)"><g><path d="M 2.375 0 L 2.375 -25.0625 L 9.3125 -25.0625 L 17.75 -10.03125 L 17.75 -25.0625 L 23.671875 -25.0625 L 23.671875 0 L 17.75 0 L 9.53125 -14.6875 L 8.296875 -14.6875 L 8.296875 0 Z M 2.375 0 "/></g></g></g><g fill="#ffffff" fill-opacity="1"><g transform="translate(237.530197, 32.906074)"><g><path d="M 5.46875 0 L 1.703125 -3.78125 L 1.703125 -21.296875 L 5.46875 -25.0625 L 18.375 -25.0625 L 22.171875 -21.296875 L 22.171875 -16.21875 L 15.984375 -16.21875 L 15.984375 -19.046875 L 14.765625 -20.234375 L 9.28125 -20.234375 L 8.0625 -19.046875 L 8.0625 -6.015625 L 9.28125 -4.828125 L 14.96875 -4.828125 L 16.21875 -6.015625 L 16.21875 -8.875 L 22.375 -8.875 L 22.375 -3.78125 L 18.609375 0 Z M 5.46875 0 "/></g></g></g><g fill="#ffffff" fill-opacity="1"><g transform="translate(65.164903, 61.073581)"><g><path d="M 5.046875 0.203125 C 4.179688 0.203125 3.421875 0.046875 2.765625 -0.265625 C 2.117188 -0.585938 1.617188 -1.03125 1.265625 -1.59375 C 0.921875 -2.164062 0.75 -2.828125 0.75 -3.578125 L 2.25 -3.578125 C 2.25 -3.109375 2.351562 -2.675781 2.5625 -2.28125 C 2.78125 -1.894531 3.097656 -1.582031 3.515625 -1.34375 C 3.929688 -1.113281 4.441406 -1 5.046875 -1 C 5.859375 -1 6.484375 -1.191406 6.921875 -1.578125 C 7.367188 -1.960938 7.59375 -2.445312 7.59375 -3.03125 C 7.59375 -3.507812 7.488281 -3.890625 7.28125 -4.171875 C 7.070312 -4.460938 6.796875 -4.695312 6.453125 -4.875 C 6.109375 -5.0625 5.710938 -5.222656 5.265625 -5.359375 C 4.816406 -5.492188 4.347656 -5.644531 3.859375 -5.8125 C 2.941406 -6.132812 2.257812 -6.53125 1.8125 -7 C 1.375 -7.46875 1.15625 -8.082031 1.15625 -8.84375 C 1.144531 -9.476562 1.289062 -10.039062 1.59375 -10.53125 C 1.90625 -11.03125 2.34375 -11.414062 2.90625 -11.6875 C 3.46875 -11.96875 4.132812 -12.109375 4.90625 -12.109375 C 5.664062 -12.109375 6.320312 -11.96875 6.875 -11.6875 C 7.4375 -11.40625 7.875 -11.015625 8.1875 -10.515625 C 8.5 -10.015625 8.660156 -9.445312 8.671875 -8.8125 L 7.1875 -8.8125 C 7.1875 -9.144531 7.097656 -9.472656 6.921875 -9.796875 C 6.753906 -10.117188 6.492188 -10.378906 6.140625 -10.578125 C 5.796875 -10.785156 5.363281 -10.890625 4.84375 -10.890625 C 4.195312 -10.898438 3.664062 -10.734375 3.25 -10.390625 C 2.84375 -10.054688 2.640625 -9.585938 2.640625 -8.984375 C 2.640625 -8.472656 2.78125 -8.082031 3.0625 -7.8125 C 3.351562 -7.539062 3.757812 -7.316406 4.28125 -7.140625 C 4.8125 -6.960938 5.414062 -6.757812 6.09375 -6.53125 C 6.65625 -6.332031 7.160156 -6.09375 7.609375 -5.8125 C 8.066406 -5.539062 8.421875 -5.191406 8.671875 -4.765625 C 8.929688 -4.335938 9.0625 -3.785156 9.0625 -3.109375 C 9.0625 -2.546875 8.914062 -2.007812 8.625 -1.5 C 8.332031 -1 7.882812 -0.585938 7.28125 -0.265625 C 6.6875 0.046875 5.941406 0.203125 5.046875 0.203125 Z M 5.046875 0.203125 "/></g></g></g><g fill="#ffffff" fill-opacity="1"><g transform="translate(74.994769, 61.073581)"><g><path d="M 2.046875 -10.3125 C 1.753906 -10.3125 1.515625 -10.40625 1.328125 -10.59375 C 1.148438 -10.78125 1.0625 -11.015625 1.0625 -11.296875 C 1.0625 -11.566406 1.148438 -11.789062 1.328125 -11.96875 C 1.515625 -12.15625 1.753906 -12.25 2.046875 -12.25 C 2.316406 -12.25 2.546875 -12.15625 2.734375 -11.96875 C 2.929688 -11.789062 3.03125 -11.566406 3.03125 -11.296875 C 3.03125 -11.015625 2.929688 -10.78125 2.734375 -10.59375 C 2.546875 -10.40625 2.316406 -10.3125 2.046875 -10.3125 Z M 1.328125 0 L 1.328125 -8.4375 L 2.75 -8.4375 L 2.75 0 Z M 1.328125 0 "/></g></g></g><g fill="#ffffff" fill-opacity="1"><g transform="translate(79.059373, 61.073581)"><g><path d="M 1.171875 0 L 1.171875 -8.4375 L 2.46875 -8.4375 L 2.5625 -7.21875 C 2.84375 -7.664062 3.207031 -8.015625 3.65625 -8.265625 C 4.113281 -8.515625 4.625 -8.640625 5.1875 -8.640625 C 5.851562 -8.640625 6.425781 -8.503906 6.90625 -8.234375 C 7.394531 -7.960938 7.769531 -7.550781 8.03125 -7 C 8.320312 -7.507812 8.722656 -7.910156 9.234375 -8.203125 C 9.753906 -8.492188 10.316406 -8.640625 10.921875 -8.640625 C 11.929688 -8.640625 12.734375 -8.335938 13.328125 -7.734375 C 13.929688 -7.128906 14.234375 -6.195312 14.234375 -4.9375 L 14.234375 0 L 12.828125 0 L 12.828125 -4.78125 C 12.828125 -5.65625 12.648438 -6.3125 12.296875 -6.75 C 11.953125 -7.195312 11.445312 -7.421875 10.78125 -7.421875 C 10.101562 -7.421875 9.539062 -7.15625 9.09375 -6.625 C 8.644531 -6.101562 8.421875 -5.351562 8.421875 -4.375 L 8.421875 0 L 7 0 L 7 -4.78125 C 7 -5.65625 6.820312 -6.3125 6.46875 -6.75 C 6.113281 -7.195312 5.609375 -7.421875 4.953125 -7.421875 C 4.285156 -7.421875 3.726562 -7.15625 3.28125 -6.625 C 2.832031 -6.101562 2.609375 -5.351562 2.609375 -4.375 L 2.609375 0 Z M 1.171875 0 "/></g></g></g><g fill="#ffffff" fill-opacity="1"><g transform="translate(94.280366, 61.073581)"><g><path d="M 1.171875 3.75 L 1.171875 -8.4375 L 2.46875 -8.4375 L 2.609375 -7.046875 C 2.878906 -7.453125 3.265625 -7.816406 3.765625 -8.140625 C 4.273438 -8.472656 4.921875 -8.640625 5.703125 -8.640625 C 6.535156 -8.640625 7.265625 -8.445312 7.890625 -8.0625 C 8.515625 -7.675781 9 -7.148438 9.34375 -6.484375 C 9.695312 -5.816406 9.875 -5.054688 9.875 -4.203125 C 9.875 -3.347656 9.695312 -2.585938 9.34375 -1.921875 C 9 -1.265625 8.507812 -0.742188 7.875 -0.359375 C 7.25 0.015625 6.519531 0.203125 5.6875 0.203125 C 4.988281 0.203125 4.367188 0.0625 3.828125 -0.21875 C 3.296875 -0.5 2.890625 -0.894531 2.609375 -1.40625 L 2.609375 3.75 Z M 5.53125 -1.03125 C 6.09375 -1.03125 6.585938 -1.164062 7.015625 -1.4375 C 7.453125 -1.707031 7.796875 -2.078125 8.046875 -2.546875 C 8.296875 -3.023438 8.421875 -3.582031 8.421875 -4.21875 C 8.421875 -4.851562 8.296875 -5.410156 8.046875 -5.890625 C 7.796875 -6.367188 7.453125 -6.738281 7.015625 -7 C 6.585938 -7.269531 6.09375 -7.40625 5.53125 -7.40625 C 4.957031 -7.40625 4.457031 -7.269531 4.03125 -7 C 3.601562 -6.738281 3.265625 -6.367188 3.015625 -5.890625 C 2.765625 -5.410156 2.640625 -4.851562 2.640625 -4.21875 C 2.640625 -3.582031 2.765625 -3.023438 3.015625 -2.546875 C 3.265625 -2.078125 3.601562 -1.707031 4.03125 -1.4375 C 4.457031 -1.164062 4.957031 -1.03125 5.53125 -1.03125 Z M 5.53125 -1.03125 "/></g></g></g><g fill="#ffffff" fill-opacity="1"><g transform="translate(104.960567, 61.073581)"><g><path d="M 1.171875 0 L 1.171875 -12.25 L 2.609375 -12.25 L 2.609375 0 Z M 1.171875 0 "/></g></g></g><g fill="#ffffff" fill-opacity="1"><g transform="translate(108.736051, 61.073581)"><g><path d="M 4.96875 0.203125 C 4.164062 0.203125 3.453125 0.0195312 2.828125 -0.34375 C 2.203125 -0.71875 1.707031 -1.234375 1.34375 -1.890625 C 0.988281 -2.546875 0.8125 -3.320312 0.8125 -4.21875 C 0.8125 -5.101562 0.988281 -5.875 1.34375 -6.53125 C 1.695312 -7.195312 2.1875 -7.710938 2.8125 -8.078125 C 3.445312 -8.453125 4.175781 -8.640625 5 -8.640625 C 5.820312 -8.640625 6.53125 -8.453125 7.125 -8.078125 C 7.71875 -7.710938 8.171875 -7.226562 8.484375 -6.625 C 8.804688 -6.03125 8.96875 -5.390625 8.96875 -4.703125 C 8.96875 -4.578125 8.960938 -4.453125 8.953125 -4.328125 C 8.953125 -4.203125 8.953125 -4.054688 8.953125 -3.890625 L 2.234375 -3.890625 C 2.265625 -3.242188 2.410156 -2.707031 2.671875 -2.28125 C 2.941406 -1.863281 3.273438 -1.546875 3.671875 -1.328125 C 4.078125 -1.109375 4.507812 -1 4.96875 -1 C 5.5625 -1 6.054688 -1.132812 6.453125 -1.40625 C 6.847656 -1.6875 7.132812 -2.054688 7.3125 -2.515625 L 8.734375 -2.515625 C 8.503906 -1.734375 8.066406 -1.082031 7.421875 -0.5625 C 6.785156 -0.0507812 5.96875 0.203125 4.96875 0.203125 Z M 4.96875 -7.4375 C 4.289062 -7.4375 3.6875 -7.226562 3.15625 -6.8125 C 2.625 -6.394531 2.320312 -5.789062 2.25 -5 L 7.5625 -5 C 7.519531 -5.757812 7.253906 -6.351562 6.765625 -6.78125 C 6.285156 -7.21875 5.6875 -7.4375 4.96875 -7.4375 Z M 4.96875 -7.4375 "/></g></g></g><g fill="#ffffff" fill-opacity="1"><g transform="translate(118.41286, 61.073581)"><g><path d="M 1.671875 0.078125 C 1.378906 0.078125 1.140625 -0.0078125 0.953125 -0.1875 C 0.773438 -0.375 0.6875 -0.609375 0.6875 -0.890625 C 0.6875 -1.160156 0.773438 -1.390625 0.953125 -1.578125 C 1.140625 -1.765625 1.378906 -1.859375 1.671875 -1.859375 C 1.941406 -1.859375 2.171875 -1.765625 2.359375 -1.578125 C 2.546875 -1.390625 2.640625 -1.160156 2.640625 -0.890625 C 2.640625 -0.609375 2.546875 -0.375 2.359375 -0.1875 C 2.171875 -0.0078125 1.941406 0.078125 1.671875 0.078125 Z M 1.671875 0.078125 "/></g></g></g><g fill="#ffffff" fill-opacity="1"><g transform="translate(121.72916, 61.073581)"><g/></g></g><g fill="#ffffff" fill-opacity="1"><g transform="translate(126.235931, 61.073581)"><g><path d="M 1.265625 0 L 1.265625 -11.90625 L 5.171875 -11.90625 C 6.097656 -11.90625 6.863281 -11.75 7.46875 -11.4375 C 8.070312 -11.132812 8.515625 -10.722656 8.796875 -10.203125 C 9.085938 -9.679688 9.234375 -9.09375 9.234375 -8.4375 C 9.234375 -7.789062 9.09375 -7.207031 8.8125 -6.6875 C 8.53125 -6.164062 8.085938 -5.75 7.484375 -5.4375 C 6.878906 -5.125 6.109375 -4.96875 5.171875 -4.96875 L 2.6875 -4.96875 L 2.6875 0 Z M 2.6875 -6.171875 L 5.140625 -6.171875 C 6.085938 -6.171875 6.765625 -6.375 7.171875 -6.78125 C 7.578125 -7.1875 7.78125 -7.738281 7.78125 -8.4375 C 7.78125 -9.15625 7.578125 -9.710938 7.171875 -10.109375 C 6.765625 -10.515625 6.085938 -10.71875 5.140625 -10.71875 L 2.6875 -10.71875 Z M 2.6875 -6.171875 "/></g></g></g><g fill="#ffffff" fill-opacity="1"><g transform="translate(136.082802, 61.073581)"><g><path d="M 5.015625 0.203125 C 4.222656 0.203125 3.507812 0.0195312 2.875 -0.34375 C 2.238281 -0.707031 1.734375 -1.21875 1.359375 -1.875 C 0.992188 -2.539062 0.8125 -3.320312 0.8125 -4.21875 C 0.8125 -5.113281 1 -5.894531 1.375 -6.5625 C 1.75 -7.226562 2.253906 -7.738281 2.890625 -8.09375 C 3.535156 -8.457031 4.253906 -8.640625 5.046875 -8.640625 C 5.847656 -8.640625 6.566406 -8.457031 7.203125 -8.09375 C 7.835938 -7.738281 8.335938 -7.226562 8.703125 -6.5625 C 9.066406 -5.894531 9.25 -5.113281 9.25 -4.21875 C 9.25 -3.320312 9.0625 -2.539062 8.6875 -1.875 C 8.320312 -1.21875 7.816406 -0.707031 7.171875 -0.34375 C 6.523438 0.0195312 5.804688 0.203125 5.015625 0.203125 Z M 5.015625 -1.015625 C 5.503906 -1.015625 5.957031 -1.132812 6.375 -1.375 C 6.800781 -1.613281 7.144531 -1.972656 7.40625 -2.453125 C 7.664062 -2.929688 7.796875 -3.519531 7.796875 -4.21875 C 7.796875 -4.925781 7.664062 -5.515625 7.40625 -5.984375 C 7.15625 -6.460938 6.816406 -6.820312 6.390625 -7.0625 C 5.972656 -7.300781 5.523438 -7.421875 5.046875 -7.421875 C 4.566406 -7.421875 4.113281 -7.300781 3.6875 -7.0625 C 3.269531 -6.820312 2.929688 -6.460938 2.671875 -5.984375 C 2.410156 -5.515625 2.28125 -4.925781 2.28125 -4.21875 C 2.28125 -3.519531 2.410156 -2.929688 2.671875 -2.453125 C 2.929688 -1.972656 3.269531 -1.613281 3.6875 -1.375 C 4.101562 -1.132812 4.546875 -1.015625 5.015625 -1.015625 Z M 5.015625 -1.015625 "/></g></g></g><g fill="#ffffff" fill-opacity="1"><g transform="translate(146.150763, 61.073581)"><g><path d="M 2.875 0 L 0.40625 -8.4375 L 1.84375 -8.4375 L 3.625 -1.828125 L 5.59375 -8.4375 L 7.21875 -8.4375 L 9.203125 -1.828125 L 10.96875 -8.4375 L 12.421875 -8.4375 L 9.953125 0 L 8.484375 0 L 6.421875 -6.953125 L 4.34375 0 Z M 2.875 0 "/></g></g></g><g fill="#ffffff" fill-opacity="1"><g transform="translate(158.97381, 61.073581)"><g><path d="M 4.96875 0.203125 C 4.164062 0.203125 3.453125 0.0195312 2.828125 -0.34375 C 2.203125 -0.71875 1.707031 -1.234375 1.34375 -1.890625 C 0.988281 -2.546875 0.8125 -3.320312 0.8125 -4.21875 C 0.8125 -5.101562 0.988281 -5.875 1.34375 -6.53125 C 1.695312 -7.195312 2.1875 -7.710938 2.8125 -8.078125 C 3.445312 -8.453125 4.175781 -8.640625 5 -8.640625 C 5.820312 -8.640625 6.53125 -8.453125 7.125 -8.078125 C 7.71875 -7.710938 8.171875 -7.226562 8.484375 -6.625 C 8.804688 -6.03125 8.96875 -5.390625 8.96875 -4.703125 C 8.96875 -4.578125 8.960938 -4.453125 8.953125 -4.328125 C 8.953125 -4.203125 8.953125 -4.054688 8.953125 -3.890625 L 2.234375 -3.890625 C 2.265625 -3.242188 2.410156 -2.707031 2.671875 -2.28125 C 2.941406 -1.863281 3.273438 -1.546875 3.671875 -1.328125 C 4.078125 -1.109375 4.507812 -1 4.96875 -1 C 5.5625 -1 6.054688 -1.132812 6.453125 -1.40625 C 6.847656 -1.6875 7.132812 -2.054688 7.3125 -2.515625 L 8.734375 -2.515625 C 8.503906 -1.734375 8.066406 -1.082031 7.421875 -0.5625 C 6.785156 -0.0507812 5.96875 0.203125 4.96875 0.203125 Z M 4.96875 -7.4375 C 4.289062 -7.4375 3.6875 -7.226562 3.15625 -6.8125 C 2.625 -6.394531 2.320312 -5.789062 2.25 -5 L 7.5625 -5 C 7.519531 -5.757812 7.253906 -6.351562 6.765625 -6.78125 C 6.285156 -7.21875 5.6875 -7.4375 4.96875 -7.4375 Z M 4.96875 -7.4375 "/></g></g></g><g fill="#ffffff" fill-opacity="1"><g transform="translate(168.650619, 61.073581)"><g><path d="M 1.171875 0 L 1.171875 -8.4375 L 2.46875 -8.4375 L 2.59375 -6.828125 C 2.851562 -7.378906 3.25 -7.816406 3.78125 -8.140625 C 4.3125 -8.472656 4.96875 -8.640625 5.75 -8.640625 L 5.75 -7.140625 L 5.359375 -7.140625 C 4.859375 -7.140625 4.398438 -7.050781 3.984375 -6.875 C 3.566406 -6.707031 3.234375 -6.410156 2.984375 -5.984375 C 2.734375 -5.566406 2.609375 -4.988281 2.609375 -4.25 L 2.609375 0 Z M 1.171875 0 "/></g></g></g><g fill="#ffffff" fill-opacity="1"><g transform="translate(174.824049, 61.073581)"><g><path d="M 1.640625 0 L 1.640625 -7.234375 L 0.359375 -7.234375 L 0.359375 -8.4375 L 1.640625 -8.4375 L 1.640625 -9.90625 C 1.640625 -10.71875 1.84375 -11.3125 2.25 -11.6875 C 2.65625 -12.0625 3.25 -12.25 4.03125 -12.25 L 4.890625 -12.25 L 4.890625 -11.03125 L 4.25 -11.03125 C 3.820312 -11.03125 3.515625 -10.941406 3.328125 -10.765625 C 3.148438 -10.585938 3.0625 -10.289062 3.0625 -9.875 L 3.0625 -8.4375 L 5.140625 -8.4375 L 5.140625 -7.234375 L 3.0625 -7.234375 L 3.0625 0 Z M 1.640625 0 "/></g></g></g><g fill="#ffffff" fill-opacity="1"><g transform="translate(180.48728, 61.073581)"><g><path d="M 4.25 0.203125 C 3.25 0.203125 2.453125 -0.0976562 1.859375 -0.703125 C 1.273438 -1.304688 0.984375 -2.238281 0.984375 -3.5 L 0.984375 -8.4375 L 2.421875 -8.4375 L 2.421875 -3.65625 C 2.421875 -1.894531 3.140625 -1.015625 4.578125 -1.015625 C 5.316406 -1.015625 5.925781 -1.28125 6.40625 -1.8125 C 6.882812 -2.34375 7.125 -3.09375 7.125 -4.0625 L 7.125 -8.4375 L 8.5625 -8.4375 L 8.5625 0 L 7.265625 0 L 7.15625 -1.515625 C 6.894531 -0.984375 6.503906 -0.5625 5.984375 -0.25 C 5.472656 0.0507812 4.894531 0.203125 4.25 0.203125 Z M 4.25 0.203125 "/></g></g></g><g fill="#ffffff" fill-opacity="1"><g transform="translate(190.215104, 61.073581)"><g><path d="M 1.171875 0 L 1.171875 -12.25 L 2.609375 -12.25 L 2.609375 0 Z M 1.171875 0 "/></g></g></g><g fill="#ffffff" fill-opacity="1"><g transform="translate(193.990588, 61.073581)"><g><path d="M 1.671875 0.078125 C 1.378906 0.078125 1.140625 -0.0078125 0.953125 -0.1875 C 0.773438 -0.375 0.6875 -0.609375 0.6875 -0.890625 C 0.6875 -1.160156 0.773438 -1.390625 0.953125 -1.578125 C 1.140625 -1.765625 1.378906 -1.859375 1.671875 -1.859375 C 1.941406 -1.859375 2.171875 -1.765625 2.359375 -1.578125 C 2.546875 -1.390625 2.640625 -1.160156 2.640625 -0.890625 C 2.640625 -0.609375 2.546875 -0.375 2.359375 -0.1875 C 2.171875 -0.0078125 1.941406 0.078125 1.671875 0.078125 Z M 1.671875 0.078125 "/></g></g></g></svg>