<svg xmlns="http://www.w3.org/2000/svg" version="1.1" xmlns:xlink="http://www.w3.org/1999/xlink" xmlns:svgjs="http://svgjs.dev/svgjs" width="1000" height="623" viewBox="0 0 1000 623"><g transform="matrix(1,0,0,1,-0.6060606060606233,0.2522267206477409)"><svg viewBox="0 0 396 247" data-background-color="#ffffff" preserveAspectRatio="xMidYMid meet" height="623" width="1000" xmlns="http://www.w3.org/2000/svg" xmlns:xlink="http://www.w3.org/1999/xlink"><g id="tight-bounds" transform="matrix(1,0,0,1,0.2400000000000091,-0.09999999999999432)"><svg viewBox="0 0 395.52 247.2" height="247.2" width="395.52"><g><svg viewBox="0 0 395.52 247.2" height="247.2" width="395.52"><g transform="matrix(1,0,0,1,0,35.11539424280352)"><svg viewBox="0 0 395.52 176.96921151439295" height="176.96921151439295" width="395.52"><g><svg viewBox="0 0 395.52 176.96921151439295" height="176.96921151439295" width="395.52"><g><svg viewBox="0 0 395.52 176.96921151439295" height="176.96921151439295" width="395.52"><g><svg viewBox="0 0 395.52 176.96921151439295" height="176.96921151439295" width="395.52"><g id="textblocktransform"><svg viewBox="0 0 395.52 176.96921151439295" height="176.96921151439295" width="395.52" id="textblock"><g><svg viewBox="0 0 395.52 176.96921151439295" height="176.96921151439295" width="395.52"><g transform="matrix(1,0,0,1,0,0)"><svg width="395.52" viewBox="1 -32.75 80.9 36.75" height="176.96921151439295" data-palette-color="url(#429af5af-0f58-4fdc-ad25-37f4bc884d77)"><g class="wordmark-text-0" data-fill-palette-color="primary" id="text-0"></g></svg></g></svg></g></svg></g></svg></g><g></g></svg></g></svg></g></svg></g></svg></g><defs></defs><mask id="d12e20f7-db3e-4058-860f-1c46de43bc34"><g id="SvgjsG1003"><svg viewBox="0 0 395.52 247.2" height="247.2" width="395.52"><g><svg viewBox="0 0 395.52 247.2" height="247.2" width="395.52"><g transform="matrix(1,0,0,1,0,35.11539424280352)"><svg viewBox="0 0 395.52 176.96921151439295" height="176.96921151439295" width="395.52"><g><svg viewBox="0 0 395.52 176.96921151439295" height="176.96921151439295" width="395.52"><g><svg viewBox="0 0 395.52 176.96921151439295" height="176.96921151439295" width="395.52"><g><svg viewBox="0 0 395.52 176.96921151439295" height="176.96921151439295" width="395.52"><g id="SvgjsG1002"><svg viewBox="0 0 395.52 176.96921151439295" height="176.96921151439295" width="395.52" id="SvgjsSvg1001"><g><svg viewBox="0 0 395.52 176.96921151439295" height="176.96921151439295" width="395.52"><g transform="matrix(1,0,0,1,0,0)"><svg width="395.52" viewBox="1 -32.75 80.9 36.75" height="176.96921151439295" data-palette-color="url(#429af5af-0f58-4fdc-ad25-37f4bc884d77)"><g class="wordmark-text-0" data-fill-palette-color="primary" id="SvgjsG1000"><path d="M5-28.75L5-28.75 21-28.75 21-22.85 11.3-22.85 11.3-17.2 21-17.2 21-11.35 11.3-11.35 11.3 0 5 0 5-28.75ZM39.45-22.85L39.45-22.85 39.45-28.75 23.45-28.75 23.45-22.85 39.45-22.85ZM31.55-11.35L31.55-11.35 31.55-17.2 23.45-17.2 23.45-11.35 31.55-11.35ZM43.45-14.75L43.45-25.3 49.15-28.75 59.45-28.75 59.45-22.85 49.55-22.85 49.55-17.2 59.45-17.2 59.45-11.35 49.15-11.35 43.45-14.75ZM77.9-3.4L77.9-13.75 72-17.2 61.7-17.2 61.7-11.35 71.6-11.35 71.6-5.65 61.9-5.65 61.9 0 72 0 77.9-3.4ZM43.45-9.1L49.75-9.1 49.75-5.65 59.45-5.65 59.45 0 49.3 0 43.45-3.4 43.45-9.1ZM71.6-19.45L77.9-19.45 77.9-25.3 72-28.75 61.7-28.75 61.7-22.85 71.6-22.85 71.6-19.45Z" fill="white"></path></g></svg></g></svg></g></svg></g></svg></g><g></g></svg></g></svg></g></svg></g></svg></g><defs><mask></mask></defs></svg></g></mask><linearGradient x1="0" x2="1" y1="0.548" y2="0.55" id="429af5af-0f58-4fdc-ad25-37f4bc884d77"><stop stop-color="#ff6cab" offset="0"></stop><stop stop-color="#7366ff" offset="1"></stop></linearGradient><rect width="395.52" height="247.2" fill="url(#429af5af-0f58-4fdc-ad25-37f4bc884d77)" mask="url(#d12e20f7-db3e-4058-860f-1c46de43bc34)" data-fill-palette-color="primary"></rect></svg><rect width="395.52" height="247.2" fill="none" stroke="none" visibility="hidden"></rect></g></svg></g></svg>